<mxfile host="app.diagrams.net" agent="Mozilla/5.0 (Windows NT 10.0; Win64; x64) AppleWebKit/537.36 (KHTML, like Gecko) Chrome/112.0.0.0 Safari/537.36 QuarkPC/1.9.5.162" version="24.8.8">
  <diagram name="第 1 页" id="jOEGAAdJldzdozOKirW3">
    <mxGraphModel dx="1436" dy="786" grid="1" gridSize="10" guides="1" tooltips="1" connect="1" arrows="1" fold="1" page="1" pageScale="1" pageWidth="827" pageHeight="480" math="0" shadow="0">
      <root>
        <mxCell id="0" />
        <mxCell id="1" parent="0" />
        <mxCell id="qu1P84a28oFz5D7fJ5ri-1" value="数据中台V0.9" style="rounded=0;whiteSpace=wrap;html=1;fillColor=#000000;fontColor=#ffffff;strokeColor=#003300;glass=0;shadow=1;verticalAlign=top;align=center;fontSize=17;" vertex="1" parent="1">
          <mxGeometry x="148.5" y="8" width="536.89" height="612" as="geometry" />
        </mxCell>
        <mxCell id="qu1P84a28oFz5D7fJ5ri-3" value="" style="rounded=1;whiteSpace=wrap;html=1;fillColor=#000000;strokeColor=#003300;fontColor=#ffffff;shadow=1;glass=0;align=center;verticalAlign=top;fontFamily=Helvetica;fontSize=12;" vertex="1" parent="1">
          <mxGeometry x="712" y="7" width="100" height="623" as="geometry" />
        </mxCell>
        <mxCell id="qu1P84a28oFz5D7fJ5ri-4" value="安全平台" style="rounded=1;whiteSpace=wrap;html=1;fillColor=#000000;strokeColor=#003300;shadow=1;glass=0;align=center;verticalAlign=top;fontFamily=Helvetica;fontSize=12;fontColor=#80FF00;" vertex="1" parent="1">
          <mxGeometry x="12" y="7" width="115" height="623" as="geometry" />
        </mxCell>
        <mxCell id="qu1P84a28oFz5D7fJ5ri-20" value="接口转发" style="rounded=1;whiteSpace=wrap;html=1;fillColor=#000000;fontColor=#80FF00;strokeColor=#003300;" vertex="1" parent="1">
          <mxGeometry x="23" y="453.5" width="76" height="70" as="geometry" />
        </mxCell>
        <mxCell id="qu1P84a28oFz5D7fJ5ri-43" value="消息中心" style="rounded=1;whiteSpace=wrap;html=1;fillColor=#000000;fontColor=#80FF00;strokeColor=#003300;horizontal=1;" vertex="1" parent="1">
          <mxGeometry x="732" y="46.5" width="21" height="183" as="geometry" />
        </mxCell>
        <mxCell id="qu1P84a28oFz5D7fJ5ri-44" value="告警中心" style="rounded=1;whiteSpace=wrap;html=1;fillColor=#000000;fontColor=#80FF00;strokeColor=#003300;horizontal=1;" vertex="1" parent="1">
          <mxGeometry x="732" y="255.5" width="21" height="183" as="geometry" />
        </mxCell>
        <mxCell id="qu1P84a28oFz5D7fJ5ri-46" value="系统监控" style="rounded=1;whiteSpace=wrap;html=1;fillColor=#000000;fontColor=#80FF00;strokeColor=#003300;horizontal=1;" vertex="1" parent="1">
          <mxGeometry x="771" y="46.5" width="21" height="183" as="geometry" />
        </mxCell>
        <mxCell id="qu1P84a28oFz5D7fJ5ri-47" value="文件中心" style="rounded=1;whiteSpace=wrap;html=1;fillColor=#000000;fontColor=#80FF00;strokeColor=#003300;horizontal=1;" vertex="1" parent="1">
          <mxGeometry x="771" y="255.5" width="21" height="183" as="geometry" />
        </mxCell>
        <mxCell id="qu1P84a28oFz5D7fJ5ri-49" value="安全防火墙" style="rounded=1;whiteSpace=wrap;html=1;fillColor=#000000;fontColor=#80FF00;strokeColor=#003300;horizontal=1;" vertex="1" parent="1">
          <mxGeometry x="30" y="49.5" width="21" height="183" as="geometry" />
        </mxCell>
        <mxCell id="qu1P84a28oFz5D7fJ5ri-50" value="用户鉴权" style="rounded=1;whiteSpace=wrap;html=1;fillColor=#000000;fontColor=#80FF00;strokeColor=#003300;horizontal=1;" vertex="1" parent="1">
          <mxGeometry x="30" y="258.5" width="21" height="183" as="geometry" />
        </mxCell>
        <mxCell id="qu1P84a28oFz5D7fJ5ri-52" value="负载均衡" style="rounded=1;whiteSpace=wrap;html=1;fillColor=#000000;fontColor=#80FF00;strokeColor=#003300;horizontal=1;" vertex="1" parent="1">
          <mxGeometry x="69" y="49.5" width="21" height="183" as="geometry" />
        </mxCell>
        <mxCell id="qu1P84a28oFz5D7fJ5ri-54" value="黑名单过滤" style="rounded=1;whiteSpace=wrap;html=1;fillColor=#000000;fontColor=#80FF00;strokeColor=#003300;horizontal=1;" vertex="1" parent="1">
          <mxGeometry x="69" y="260" width="21" height="183" as="geometry" />
        </mxCell>
        <mxCell id="qu1P84a28oFz5D7fJ5ri-66" value="接口限流" style="rounded=1;whiteSpace=wrap;html=1;fillColor=#000000;fontColor=#80FF00;strokeColor=#003300;" vertex="1" parent="1">
          <mxGeometry x="23" y="540" width="76" height="70" as="geometry" />
        </mxCell>
        <mxCell id="qu1P84a28oFz5D7fJ5ri-113" value="" style="group" vertex="1" connectable="0" parent="1">
          <mxGeometry x="13" y="640" width="802" height="540" as="geometry" />
        </mxCell>
        <mxCell id="qu1P84a28oFz5D7fJ5ri-21" value="" style="group;rounded=0;strokeColor=#003300;align=center;verticalAlign=middle;fontFamily=Helvetica;fontSize=12;fontColor=#80FF00;fillColor=#000000;" vertex="1" connectable="0" parent="qu1P84a28oFz5D7fJ5ri-113">
          <mxGeometry width="802" height="430" as="geometry" />
        </mxCell>
        <mxCell id="qu1P84a28oFz5D7fJ5ri-22" value="基础服务平台" style="rounded=0;whiteSpace=wrap;html=1;fillColor=#000000;strokeColor=#003300;fontColor=#80FF00;align=center;verticalAlign=top;labelBackgroundColor=none;fontFamily=Helvetica;shadow=1;glass=0;fontSize=12;" vertex="1" parent="qu1P84a28oFz5D7fJ5ri-21">
          <mxGeometry width="802" height="418" as="geometry" />
        </mxCell>
        <mxCell id="qu1P84a28oFz5D7fJ5ri-23" value="多租户与角色权限" style="rounded=1;whiteSpace=wrap;html=1;fillColor=#000000;fontColor=#80FF00;strokeColor=#003300;glass=0;shadow=1;verticalAlign=top;align=center;fontFamily=Helvetica;fontSize=12;" vertex="1" parent="qu1P84a28oFz5D7fJ5ri-21">
          <mxGeometry x="30.9228855721393" y="26" width="371.07462686567163" height="222" as="geometry" />
        </mxCell>
        <mxCell id="qu1P84a28oFz5D7fJ5ri-24" value="用户管理" style="rounded=1;whiteSpace=wrap;html=1;fillColor=#000000;fontColor=#80FF00;strokeColor=#003300;align=center;verticalAlign=middle;fontFamily=Helvetica;fontSize=12;horizontal=1;" vertex="1" parent="qu1P84a28oFz5D7fJ5ri-21">
          <mxGeometry x="63.840796019900495" y="68" width="75.81094527363183" height="57" as="geometry" />
        </mxCell>
        <mxCell id="qu1P84a28oFz5D7fJ5ri-25" value="角色管理" style="rounded=1;whiteSpace=wrap;html=1;fillColor=#000000;fontColor=#80FF00;strokeColor=#003300;align=center;verticalAlign=middle;fontFamily=Helvetica;fontSize=12;horizontal=1;" vertex="1" parent="qu1P84a28oFz5D7fJ5ri-21">
          <mxGeometry x="179.55223880597015" y="68" width="75.81094527363183" height="57" as="geometry" />
        </mxCell>
        <mxCell id="qu1P84a28oFz5D7fJ5ri-26" value="权限分配" style="rounded=1;whiteSpace=wrap;html=1;fillColor=#000000;fontColor=#80FF00;strokeColor=#003300;align=center;verticalAlign=middle;fontFamily=Helvetica;fontSize=12;horizontal=1;" vertex="1" parent="qu1P84a28oFz5D7fJ5ri-21">
          <mxGeometry x="295.2636815920398" y="68" width="75.81094527363183" height="57" as="geometry" />
        </mxCell>
        <mxCell id="qu1P84a28oFz5D7fJ5ri-27" value="组织机构" style="rounded=1;whiteSpace=wrap;html=1;fillColor=#000000;fontColor=#80FF00;strokeColor=#003300;align=center;verticalAlign=middle;fontFamily=Helvetica;fontSize=12;horizontal=1;" vertex="1" parent="qu1P84a28oFz5D7fJ5ri-21">
          <mxGeometry x="63.282189054726366" y="156" width="75.81094527363183" height="57" as="geometry" />
        </mxCell>
        <mxCell id="qu1P84a28oFz5D7fJ5ri-28" value="用户活动" style="rounded=1;whiteSpace=wrap;html=1;fillColor=#000000;fontColor=#80FF00;strokeColor=#003300;align=center;verticalAlign=middle;fontFamily=Helvetica;fontSize=12;horizontal=1;" vertex="1" parent="qu1P84a28oFz5D7fJ5ri-21">
          <mxGeometry x="179.55223880597015" y="156" width="75.81094527363183" height="57" as="geometry" />
        </mxCell>
        <mxCell id="qu1P84a28oFz5D7fJ5ri-29" value="登录日志" style="rounded=1;whiteSpace=wrap;html=1;fillColor=#000000;fontColor=#80FF00;strokeColor=#003300;align=center;verticalAlign=middle;fontFamily=Helvetica;fontSize=12;horizontal=1;" vertex="1" parent="qu1P84a28oFz5D7fJ5ri-21">
          <mxGeometry x="295.2636815920398" y="156" width="75.81094527363183" height="57" as="geometry" />
        </mxCell>
        <mxCell id="qu1P84a28oFz5D7fJ5ri-30" value="工作流引擎" style="rounded=1;whiteSpace=wrap;html=1;fillColor=#000000;fontColor=#80FF00;strokeColor=#003300;glass=0;shadow=1;verticalAlign=top;align=center;fontFamily=Helvetica;fontSize=12;" vertex="1" parent="qu1P84a28oFz5D7fJ5ri-21">
          <mxGeometry x="424.94029850746267" y="26" width="355.05457711442784" height="222" as="geometry" />
        </mxCell>
        <mxCell id="qu1P84a28oFz5D7fJ5ri-31" value="工作流管理" style="rounded=1;whiteSpace=wrap;html=1;fillColor=#000000;fontColor=#80FF00;strokeColor=#003300;align=center;verticalAlign=middle;fontFamily=Helvetica;fontSize=12;horizontal=1;" vertex="1" parent="qu1P84a28oFz5D7fJ5ri-21">
          <mxGeometry x="457.85820895522386" y="66" width="75.81094527363183" height="57" as="geometry" />
        </mxCell>
        <mxCell id="qu1P84a28oFz5D7fJ5ri-32" value="工作流分类" style="rounded=1;whiteSpace=wrap;html=1;fillColor=#000000;fontColor=#80FF00;strokeColor=#003300;align=center;verticalAlign=middle;fontFamily=Helvetica;fontSize=12;horizontal=1;" vertex="1" parent="qu1P84a28oFz5D7fJ5ri-21">
          <mxGeometry x="569.5796019900497" y="66" width="75.81094527363183" height="57" as="geometry" />
        </mxCell>
        <mxCell id="qu1P84a28oFz5D7fJ5ri-33" value="流程设计" style="rounded=1;whiteSpace=wrap;html=1;fillColor=#000000;fontColor=#80FF00;strokeColor=#003300;align=center;verticalAlign=middle;fontFamily=Helvetica;fontSize=12;horizontal=1;" vertex="1" parent="qu1P84a28oFz5D7fJ5ri-21">
          <mxGeometry x="681.3009950248756" y="66" width="75.81094527363183" height="57" as="geometry" />
        </mxCell>
        <mxCell id="qu1P84a28oFz5D7fJ5ri-34" value="流程设计器" style="rounded=1;whiteSpace=wrap;html=1;fillColor=#000000;fontColor=#80FF00;strokeColor=#003300;align=center;verticalAlign=middle;fontFamily=Helvetica;fontSize=12;horizontal=1;" vertex="1" parent="qu1P84a28oFz5D7fJ5ri-21">
          <mxGeometry x="457.85820895522386" y="158" width="75.81094527363183" height="57" as="geometry" />
        </mxCell>
        <mxCell id="qu1P84a28oFz5D7fJ5ri-35" value="任务管理" style="rounded=1;whiteSpace=wrap;html=1;fillColor=#000000;fontColor=#80FF00;strokeColor=#003300;align=center;verticalAlign=middle;fontFamily=Helvetica;fontSize=12;horizontal=1;" vertex="1" parent="qu1P84a28oFz5D7fJ5ri-21">
          <mxGeometry x="569.5796019900497" y="158" width="75.81094527363183" height="57" as="geometry" />
        </mxCell>
        <mxCell id="qu1P84a28oFz5D7fJ5ri-36" value="流程监控" style="rounded=1;whiteSpace=wrap;html=1;fillColor=#000000;fontColor=#80FF00;strokeColor=#003300;align=center;verticalAlign=middle;fontFamily=Helvetica;fontSize=12;horizontal=1;" vertex="1" parent="qu1P84a28oFz5D7fJ5ri-21">
          <mxGeometry x="680.7423880597015" y="158" width="75.81094527363183" height="57" as="geometry" />
        </mxCell>
        <mxCell id="qu1P84a28oFz5D7fJ5ri-37" value="通用设计器" style="rounded=1;whiteSpace=wrap;html=1;fillColor=#000000;fontColor=#80FF00;strokeColor=#003300;glass=0;shadow=1;verticalAlign=middle;align=center;fontFamily=Helvetica;fontSize=12;" vertex="1" parent="qu1P84a28oFz5D7fJ5ri-21">
          <mxGeometry x="30.9228855721393" y="353" width="748.1343283582089" height="48" as="geometry" />
        </mxCell>
        <mxCell id="qu1P84a28oFz5D7fJ5ri-38" value="组态设计器" style="rounded=1;whiteSpace=wrap;html=1;fillColor=#000000;fontColor=#80FF00;strokeColor=#003300;glass=0;shadow=1;verticalAlign=middle;align=center;fontFamily=Helvetica;fontSize=12;" vertex="1" parent="qu1P84a28oFz5D7fJ5ri-21">
          <mxGeometry x="30.863034825870642" y="275.00787401574803" width="158.6044776119403" height="62.99212598425197" as="geometry" />
        </mxCell>
        <mxCell id="qu1P84a28oFz5D7fJ5ri-39" value="大屏设计器" style="rounded=1;whiteSpace=wrap;html=1;fillColor=#000000;fontColor=#80FF00;strokeColor=#003300;glass=0;shadow=1;verticalAlign=middle;align=center;fontFamily=Helvetica;fontSize=12;" vertex="1" parent="qu1P84a28oFz5D7fJ5ri-21">
          <mxGeometry x="226.43532338308458" y="274" width="158.6044776119403" height="62.99212598425197" as="geometry" />
        </mxCell>
        <mxCell id="qu1P84a28oFz5D7fJ5ri-40" value="报表设计器" style="rounded=1;whiteSpace=wrap;html=1;fillColor=#000000;fontColor=#80FF00;strokeColor=#003300;glass=0;shadow=1;verticalAlign=middle;align=center;fontFamily=Helvetica;fontSize=12;" vertex="1" parent="qu1P84a28oFz5D7fJ5ri-21">
          <mxGeometry x="618.457711442786" y="275.00787401574803" width="158.6044776119403" height="62.99212598425197" as="geometry" />
        </mxCell>
        <mxCell id="qu1P84a28oFz5D7fJ5ri-41" value="表单设计器" style="rounded=1;whiteSpace=wrap;html=1;fillColor=#000000;fontColor=#80FF00;strokeColor=#003300;glass=0;shadow=1;verticalAlign=middle;align=center;fontFamily=Helvetica;fontSize=12;" vertex="1" parent="qu1P84a28oFz5D7fJ5ri-21">
          <mxGeometry x="422.9452736318408" y="274" width="158.6044776119403" height="62.99212598425197" as="geometry" />
        </mxCell>
        <mxCell id="qu1P84a28oFz5D7fJ5ri-59" value="" style="group" vertex="1" connectable="0" parent="qu1P84a28oFz5D7fJ5ri-113">
          <mxGeometry y="447" width="802" height="113" as="geometry" />
        </mxCell>
        <mxCell id="qu1P84a28oFz5D7fJ5ri-60" value="数据库" style="rounded=1;whiteSpace=wrap;html=1;fillColor=#000000;fontColor=#80FF00;strokeColor=#003300;glass=0;shadow=1;verticalAlign=top;align=center;fontFamily=Helvetica;fontSize=12;" vertex="1" parent="qu1P84a28oFz5D7fJ5ri-59">
          <mxGeometry width="802" height="113" as="geometry" />
        </mxCell>
        <mxCell id="qu1P84a28oFz5D7fJ5ri-61" value="关系数据" style="rounded=1;whiteSpace=wrap;html=1;fillColor=#000000;fontColor=#80FF00;strokeColor=#003300;glass=0;shadow=1;verticalAlign=middle;align=center;fontFamily=Helvetica;fontSize=12;" vertex="1" parent="qu1P84a28oFz5D7fJ5ri-59">
          <mxGeometry x="121" y="25" width="159" height="62.99212598425197" as="geometry" />
        </mxCell>
        <mxCell id="qu1P84a28oFz5D7fJ5ri-62" value="时序数据" style="rounded=1;whiteSpace=wrap;html=1;fillColor=#000000;fontColor=#80FF00;strokeColor=#003300;glass=0;shadow=1;verticalAlign=middle;align=center;fontFamily=Helvetica;fontSize=12;" vertex="1" parent="qu1P84a28oFz5D7fJ5ri-59">
          <mxGeometry x="285" y="25" width="159" height="62.99212598425197" as="geometry" />
        </mxCell>
        <mxCell id="qu1P84a28oFz5D7fJ5ri-63" value="非结构化数据库" style="rounded=1;whiteSpace=wrap;html=1;fillColor=#000000;fontColor=#80FF00;strokeColor=#003300;glass=0;shadow=1;verticalAlign=middle;align=center;fontFamily=Helvetica;fontSize=12;" vertex="1" parent="qu1P84a28oFz5D7fJ5ri-59">
          <mxGeometry x="613" y="25" width="159" height="62.99212598425197" as="geometry" />
        </mxCell>
        <mxCell id="qu1P84a28oFz5D7fJ5ri-64" value="缓存数据库" style="rounded=1;whiteSpace=wrap;html=1;fillColor=#000000;fontColor=#80FF00;strokeColor=#003300;glass=0;shadow=1;verticalAlign=middle;align=center;fontFamily=Helvetica;fontSize=12;" vertex="1" parent="qu1P84a28oFz5D7fJ5ri-59">
          <mxGeometry x="449" y="25" width="159" height="62.99212598425197" as="geometry" />
        </mxCell>
        <mxCell id="qu1P84a28oFz5D7fJ5ri-65" value="存储策略" style="rounded=1;whiteSpace=wrap;html=1;fillColor=#000000;fontColor=#80FF00;strokeColor=#003300;horizontal=1;" vertex="1" parent="qu1P84a28oFz5D7fJ5ri-59">
          <mxGeometry x="9" y="25" width="93" height="64" as="geometry" />
        </mxCell>
        <mxCell id="qu1P84a28oFz5D7fJ5ri-114" value="" style="group" vertex="1" connectable="0" parent="1">
          <mxGeometry x="166.88" y="120" width="507.84000000000003" height="487.5" as="geometry" />
        </mxCell>
        <mxCell id="qu1P84a28oFz5D7fJ5ri-2" value="用户与权限" style="rounded=1;whiteSpace=wrap;html=1;fillColor=#000000;fontColor=#80FF00;strokeColor=#003300;glass=0;shadow=1;verticalAlign=top;align=center;fontFamily=Helvetica;fontSize=12;" vertex="1" parent="qu1P84a28oFz5D7fJ5ri-114">
          <mxGeometry x="2.1200000000000045" y="160" width="503" height="110" as="geometry" />
        </mxCell>
        <mxCell id="qu1P84a28oFz5D7fJ5ri-5" value="组织" style="rounded=1;whiteSpace=wrap;html=1;fillColor=#000000;fontColor=#80FF00;strokeColor=#003300;" vertex="1" parent="qu1P84a28oFz5D7fJ5ri-114">
          <mxGeometry x="18.680000000000007" y="196" width="76" height="57" as="geometry" />
        </mxCell>
        <mxCell id="qu1P84a28oFz5D7fJ5ri-6" value="成员与角色" style="rounded=1;whiteSpace=wrap;html=1;fillColor=#000000;fontColor=#80FF00;strokeColor=#003300;" vertex="1" parent="qu1P84a28oFz5D7fJ5ri-114">
          <mxGeometry x="119.68" y="196" width="76" height="57" as="geometry" />
        </mxCell>
        <mxCell id="qu1P84a28oFz5D7fJ5ri-7" value="" style="edgeStyle=orthogonalEdgeStyle;rounded=0;orthogonalLoop=1;jettySize=auto;html=1;" edge="1" parent="qu1P84a28oFz5D7fJ5ri-114" source="qu1P84a28oFz5D7fJ5ri-9">
          <mxGeometry relative="1" as="geometry">
            <mxPoint x="254.32000000000005" y="126" as="targetPoint" />
          </mxGeometry>
        </mxCell>
        <mxCell id="qu1P84a28oFz5D7fJ5ri-9" value="权限" style="rounded=1;whiteSpace=wrap;html=1;fillColor=#000000;fontColor=#80FF00;strokeColor=#003300;" vertex="1" parent="qu1P84a28oFz5D7fJ5ri-114">
          <mxGeometry x="220.68" y="196" width="76" height="57" as="geometry" />
        </mxCell>
        <mxCell id="qu1P84a28oFz5D7fJ5ri-10" value="" style="edgeStyle=orthogonalEdgeStyle;rounded=0;orthogonalLoop=1;jettySize=auto;html=1;" edge="1" parent="qu1P84a28oFz5D7fJ5ri-114">
          <mxGeometry relative="1" as="geometry">
            <mxPoint x="358.7199999999999" y="253" as="sourcePoint" />
            <mxPoint x="358.12" y="286" as="targetPoint" />
          </mxGeometry>
        </mxCell>
        <mxCell id="qu1P84a28oFz5D7fJ5ri-57" value="采集系统" style="rounded=1;whiteSpace=wrap;html=1;fillColor=#000000;fontColor=#80FF00;strokeColor=#003300;" vertex="1" parent="qu1P84a28oFz5D7fJ5ri-114">
          <mxGeometry y="420" width="507" height="50" as="geometry" />
        </mxCell>
        <mxCell id="qu1P84a28oFz5D7fJ5ri-58" value="可视化" style="group;rounded=0;strokeColor=#003300;align=center;verticalAlign=top;fontFamily=Helvetica;fontSize=12;fontColor=#80FF00;fillColor=none;container=0;" vertex="1" connectable="0" parent="qu1P84a28oFz5D7fJ5ri-114">
          <mxGeometry x="2.5600000000000023" width="503.56" height="149" as="geometry" />
        </mxCell>
        <mxCell id="qu1P84a28oFz5D7fJ5ri-72" value="故事版" style="rounded=1;whiteSpace=wrap;html=1;fillColor=#000000;fontColor=#80FF00;strokeColor=#003300;align=center;verticalAlign=middle;fontFamily=Helvetica;fontSize=12;" vertex="1" parent="qu1P84a28oFz5D7fJ5ri-114">
          <mxGeometry x="18.680000000000007" y="27.647911329354457" width="76" height="52.216380933417014" as="geometry" />
        </mxCell>
        <mxCell id="qu1P84a28oFz5D7fJ5ri-73" value="仪表盘" style="rounded=1;whiteSpace=wrap;html=1;fillColor=#000000;fontColor=#80FF00;strokeColor=#003300;align=center;verticalAlign=middle;fontFamily=Helvetica;fontSize=12;" vertex="1" parent="qu1P84a28oFz5D7fJ5ri-114">
          <mxGeometry x="118.12" y="27.647911329354457" width="76" height="52.216380933417014" as="geometry" />
        </mxCell>
        <mxCell id="qu1P84a28oFz5D7fJ5ri-74" value="大屏设计" style="rounded=1;whiteSpace=wrap;html=1;fillColor=#000000;fontColor=#80FF00;strokeColor=#003300;align=center;verticalAlign=middle;fontFamily=Helvetica;fontSize=12;" vertex="1" parent="qu1P84a28oFz5D7fJ5ri-114">
          <mxGeometry x="217.12" y="27.647911329354457" width="76" height="52.216380933417014" as="geometry" />
        </mxCell>
        <mxCell id="qu1P84a28oFz5D7fJ5ri-75" value="数据源" style="rounded=1;whiteSpace=wrap;html=1;fillColor=#000000;fontColor=#80FF00;strokeColor=#003300;align=center;verticalAlign=middle;fontFamily=Helvetica;fontSize=12;" vertex="1" parent="qu1P84a28oFz5D7fJ5ri-114">
          <mxGeometry x="316.12" y="27.647911329354457" width="76" height="52.216380933417014" as="geometry" />
        </mxCell>
        <mxCell id="qu1P84a28oFz5D7fJ5ri-76" value="" style="edgeStyle=orthogonalEdgeStyle;rounded=0;orthogonalLoop=1;jettySize=auto;html=1;" edge="1" parent="qu1P84a28oFz5D7fJ5ri-114" source="qu1P84a28oFz5D7fJ5ri-77" target="qu1P84a28oFz5D7fJ5ri-75">
          <mxGeometry relative="1" as="geometry" />
        </mxCell>
        <mxCell id="qu1P84a28oFz5D7fJ5ri-77" value="数据视图" style="rounded=1;whiteSpace=wrap;html=1;fillColor=#000000;fontColor=#80FF00;strokeColor=#003300;align=center;verticalAlign=middle;fontFamily=Helvetica;fontSize=12;" vertex="1" parent="qu1P84a28oFz5D7fJ5ri-114">
          <mxGeometry x="414.67999999999995" y="27.647911329354457" width="76" height="52.216380933417014" as="geometry" />
        </mxCell>
        <mxCell id="qu1P84a28oFz5D7fJ5ri-78" value="定时任务" style="rounded=1;whiteSpace=wrap;html=1;fillColor=#000000;fontColor=#80FF00;strokeColor=#003300;align=center;verticalAlign=middle;fontFamily=Helvetica;fontSize=12;" vertex="1" parent="qu1P84a28oFz5D7fJ5ri-114">
          <mxGeometry x="19.120000000000005" y="89.78361906658296" width="76" height="52.216380933417014" as="geometry" />
        </mxCell>
        <mxCell id="qu1P84a28oFz5D7fJ5ri-105" value="" style="edgeStyle=orthogonalEdgeStyle;rounded=0;orthogonalLoop=1;jettySize=auto;html=1;" edge="1" parent="qu1P84a28oFz5D7fJ5ri-114" source="qu1P84a28oFz5D7fJ5ri-79" target="qu1P84a28oFz5D7fJ5ri-74">
          <mxGeometry relative="1" as="geometry" />
        </mxCell>
        <mxCell id="qu1P84a28oFz5D7fJ5ri-79" value="变量" style="rounded=1;whiteSpace=wrap;html=1;fillColor=#000000;fontColor=#80FF00;strokeColor=#003300;align=center;verticalAlign=middle;fontFamily=Helvetica;fontSize=12;" vertex="1" parent="qu1P84a28oFz5D7fJ5ri-114">
          <mxGeometry x="118.56" y="89.78361906658296" width="76" height="52.216380933417014" as="geometry" />
        </mxCell>
        <mxCell id="qu1P84a28oFz5D7fJ5ri-80" value="数据层" style="rounded=1;whiteSpace=wrap;html=1;fillColor=#000000;strokeColor=#003300;fontColor=#80FF00;verticalAlign=top;align=center;shadow=1;glass=0;fontFamily=Helvetica;fontSize=12;" vertex="1" parent="qu1P84a28oFz5D7fJ5ri-114">
          <mxGeometry y="281.5" width="503.56" height="117" as="geometry" />
        </mxCell>
        <mxCell id="qu1P84a28oFz5D7fJ5ri-81" value="数据接口" style="rounded=1;whiteSpace=wrap;html=1;fillColor=#000000;fontColor=#80FF00;strokeColor=#003300;align=center;verticalAlign=middle;fontFamily=Helvetica;fontSize=12;" vertex="1" parent="qu1P84a28oFz5D7fJ5ri-114">
          <mxGeometry x="16.120000000000005" y="315.5" width="76" height="57" as="geometry" />
        </mxCell>
        <mxCell id="qu1P84a28oFz5D7fJ5ri-82" value="历史数据" style="rounded=1;whiteSpace=wrap;html=1;fillColor=#000000;fontColor=#80FF00;strokeColor=#003300;align=center;verticalAlign=middle;fontFamily=Helvetica;fontSize=12;" vertex="1" parent="qu1P84a28oFz5D7fJ5ri-114">
          <mxGeometry x="115.56" y="315.5" width="76" height="57" as="geometry" />
        </mxCell>
        <mxCell id="qu1P84a28oFz5D7fJ5ri-83" value="实时数据" style="rounded=1;whiteSpace=wrap;html=1;fillColor=#000000;fontColor=#80FF00;strokeColor=#003300;align=center;verticalAlign=middle;fontFamily=Helvetica;fontSize=12;" vertex="1" parent="qu1P84a28oFz5D7fJ5ri-114">
          <mxGeometry x="214.56" y="315.5" width="76" height="57" as="geometry" />
        </mxCell>
        <mxCell id="qu1P84a28oFz5D7fJ5ri-84" value="数据采集" style="rounded=1;whiteSpace=wrap;html=1;fillColor=#000000;fontColor=#80FF00;strokeColor=#003300;align=center;verticalAlign=middle;fontFamily=Helvetica;fontSize=12;" vertex="1" parent="qu1P84a28oFz5D7fJ5ri-114">
          <mxGeometry x="313.56" y="315.5" width="76" height="57" as="geometry" />
        </mxCell>
        <mxCell id="qu1P84a28oFz5D7fJ5ri-85" value="数据转发" style="rounded=1;whiteSpace=wrap;html=1;fillColor=#000000;fontColor=#80FF00;strokeColor=#003300;align=center;verticalAlign=middle;fontFamily=Helvetica;fontSize=12;" vertex="1" parent="qu1P84a28oFz5D7fJ5ri-114">
          <mxGeometry x="412.1199999999999" y="315.5" width="76" height="57" as="geometry" />
        </mxCell>
        <mxCell id="qu1P84a28oFz5D7fJ5ri-106" value="数据共享" style="rounded=1;whiteSpace=wrap;html=1;fillColor=#000000;fontColor=#80FF00;strokeColor=#003300;align=center;verticalAlign=middle;fontFamily=Helvetica;fontSize=12;" vertex="1" parent="qu1P84a28oFz5D7fJ5ri-114">
          <mxGeometry x="217.12" y="89.78361906658296" width="76" height="52.216380933417014" as="geometry" />
        </mxCell>
        <mxCell id="qu1P84a28oFz5D7fJ5ri-107" value="扩展数据源" style="rounded=1;whiteSpace=wrap;html=1;fillColor=#000000;fontColor=#80FF00;strokeColor=#003300;align=center;verticalAlign=middle;fontFamily=Helvetica;fontSize=12;" vertex="1" parent="qu1P84a28oFz5D7fJ5ri-114">
          <mxGeometry x="316.12" y="89.78361906658296" width="76" height="52.216380933417014" as="geometry" />
        </mxCell>
        <mxCell id="qu1P84a28oFz5D7fJ5ri-111" value="" style="edgeStyle=orthogonalEdgeStyle;rounded=0;orthogonalLoop=1;jettySize=auto;html=1;exitX=0.75;exitY=0;exitDx=0;exitDy=0;" edge="1" parent="qu1P84a28oFz5D7fJ5ri-114">
          <mxGeometry relative="1" as="geometry">
            <mxPoint x="266.12" y="480" as="sourcePoint" />
            <mxPoint x="251.62" y="487.5" as="targetPoint" />
          </mxGeometry>
        </mxCell>
        <mxCell id="qu1P84a28oFz5D7fJ5ri-112" value="审计" style="rounded=1;whiteSpace=wrap;html=1;fillColor=#000000;fontColor=#80FF00;strokeColor=#003300;" vertex="1" parent="qu1P84a28oFz5D7fJ5ri-114">
          <mxGeometry x="316.12" y="195.5" width="76" height="57" as="geometry" />
        </mxCell>
        <mxCell id="qu1P84a28oFz5D7fJ5ri-115" value="业务系统" style="rounded=1;whiteSpace=wrap;html=1;fillColor=#000000;fontColor=#80FF00;strokeColor=#003300;glass=0;shadow=1;verticalAlign=top;align=center;fontFamily=Helvetica;fontSize=12;" vertex="1" parent="1">
          <mxGeometry x="166.88" y="40" width="503" height="60" as="geometry" />
        </mxCell>
        <mxCell id="qu1P84a28oFz5D7fJ5ri-116" value="数据监控" style="rounded=1;whiteSpace=wrap;html=1;fillColor=#000000;fontColor=#80FF00;strokeColor=#003300;align=center;verticalAlign=middle;fontFamily=Helvetica;fontSize=12;" vertex="1" parent="1">
          <mxGeometry x="724" y="466.5" width="76" height="57" as="geometry" />
        </mxCell>
        <mxCell id="qu1P84a28oFz5D7fJ5ri-117" value="操作日志" style="rounded=1;whiteSpace=wrap;html=1;fillColor=#000000;fontColor=#80FF00;strokeColor=#003300;align=center;verticalAlign=middle;fontFamily=Helvetica;fontSize=12;" vertex="1" parent="1">
          <mxGeometry x="724" y="540" width="76" height="57" as="geometry" />
        </mxCell>
      </root>
    </mxGraphModel>
  </diagram>
</mxfile>
